<svg xmlns="http://www.w3.org/2000/svg" width="545" height="525" viewBox="0 0 545 525" version="1.1"><path d="M 447.079 209.585 C 440.756 211.881, 436.130 215.034, 431.161 220.434 C 424.215 227.981, 422.500 232.747, 422.500 244.500 C 422.500 253.389, 422.806 255.123, 425.255 260.109 C 428.358 266.428, 436.432 274.598, 443.073 278.140 C 446.954 280.209, 448.857 280.500, 458.500 280.500 C 468.164 280.500, 470.047 280.211, 474 278.117 C 488.516 270.429, 495.124 259.865, 495.174 244.262 C 495.196 237.204, 494.779 235.128, 492.263 229.762 C 488.703 222.170, 481.612 214.936, 474.152 211.286 C 467.181 207.875, 454.057 207.051, 447.079 209.585 M 357.740 280.776 C 355.354 281.870, 333.852 302.386, 298.918 336.902 L 243.857 391.304 219.178 366.737 C 197.613 345.269, 193.944 342.023, 190.091 341.003 C 185.408 339.765, 180.197 340.319, 176.035 342.499 C 174.641 343.229, 165.559 351.857, 155.853 361.673 C 140.957 376.737, 138.024 380.198, 137.034 383.872 C 135.800 388.456, 136.320 394.058, 138.311 397.634 C 138.965 398.808, 160.425 420.948, 186 446.833 C 218.212 479.437, 233.642 494.374, 236.218 495.449 C 241.300 497.569, 248.290 497.403, 252.899 495.051 C 256.749 493.087, 409.322 339.983, 411.715 335.683 C 412.383 334.482, 412.945 331.001, 412.965 327.946 C 413.014 320.175, 410.471 316.654, 390.875 297.364 C 377.911 284.602, 373.648 280.996, 370.491 280.119 C 365.035 278.604, 362.154 278.753, 357.740 280.776" stroke="none" fill="#04afaa" fill-rule="evenodd"/><path d="M 135.214 285.741 C 89.442 406.059, 51.994 504.842, 51.996 505.259 C 51.998 505.677, 74.773 505.902, 102.606 505.759 L 153.211 505.500 166.217 472.642 L 179.223 439.785 158.706 419.142 C 141.965 402.299, 137.988 397.764, 137.100 394.500 C 135.742 389.511, 135.744 388.464, 137.120 383.500 C 138.008 380.299, 141.752 375.938, 155.865 361.663 C 174.034 343.286, 176.078 341.639, 182.125 340.504 C 188.895 339.234, 193.746 341.514, 202.542 350.099 C 206.994 354.444, 210.843 358, 211.096 358 C 211.349 358, 225.043 323.852, 241.528 282.116 C 259.163 237.467, 271.804 206.757, 272.239 207.507 C 272.796 208.469, 311.411 307.803, 315.365 318.446 C 315.980 320.101, 318.968 317.520, 335.294 301.234 C 357.881 278.702, 360.255 277.277, 370.491 280.119 C 373.648 280.996, 377.911 284.602, 390.875 297.364 C 410.297 316.482, 413 320.195, 413 327.745 C 413 330.690, 412.355 334.314, 411.566 335.800 C 410.777 337.285, 396.152 352.447, 379.066 369.494 C 361.980 386.541, 348 400.944, 348 401.501 C 348 402.058, 356.971 425.686, 367.935 454.007 L 387.869 505.500 441.545 505.759 L 495.221 506.017 494.616 503.759 C 494.284 502.516, 456.308 403.850, 410.225 284.500 L 326.439 67.500 272.438 67.241 L 218.436 66.983 135.214 285.741" stroke="none" fill="#1f67b5" fill-rule="evenodd"/></svg>