<svg xmlns="http://www.w3.org/2000/svg" width="2643" height="736" viewBox="0 0 2643 736" version="1.1"><path d="M 2090.010 617.512 C 2090.700 618.344, 2093.455 620.632, 2096.132 622.597 C 2100.917 626.109, 2101 626.263, 2101 631.585 L 2101 637 2119.500 637 L 2138 637 2138 626.500 L 2138 616 2113.378 616 C 2091.517 616, 2088.896 616.170, 2090.010 617.512 M 1999.231 728.877 C 1997.454 732.109, 1996 735.034, 1996 735.377 C 1996 736.696, 2000.093 735.922, 2000.638 734.500 C 2000.955 733.675, 2002.018 733, 2003 733 C 2003.982 733, 2005.045 733.675, 2005.362 734.500 C 2005.995 736.152, 2009 736.583, 2009 735.022 C 2009 733.650, 2003.705 723, 2003.023 723 C 2002.714 723, 2001.008 725.645, 1999.231 728.877 M 2126 729.573 C 2126 735.294, 2126.227 736.103, 2127.750 735.813 C 2129.154 735.546, 2129.559 734.246, 2129.798 729.240 C 2130.071 723.521, 2129.924 723, 2128.048 723 C 2126.192 723, 2126 723.616, 2126 729.573 M 2275.667 723.667 C 2274.004 725.330, 2275.090 729.084, 2277.500 730 C 2280.758 731.239, 2280.709 733, 2277.417 733 C 2274.253 733, 2274.642 735.351, 2277.883 735.827 C 2282.887 736.561, 2284.775 731.209, 2280.500 728.408 C 2277.504 726.445, 2277.202 724.558, 2280 725.290 C 2281.300 725.630, 2282 725.320, 2282 724.406 C 2282 722.964, 2276.958 722.375, 2275.667 723.667" stroke="none" fill="#ec2024" fill-rule="evenodd"/><path d="M 1805.995 638.250 L 1805.990 652.500 1803.745 649.769 C 1801.179 646.649, 1795.411 644, 1791.181 644 C 1776.234 644, 1767.214 660.889, 1772.555 678.874 C 1776.648 692.656, 1793.019 698.506, 1802.493 689.572 L 1806 686.264 1806 689.132 C 1806 691.864, 1806.213 692, 1810.500 692 L 1815 692 1815 658 L 1815 624 1810.500 624 L 1806 624 1805.995 638.250 M 1837 658 L 1837 692 1841.500 692 C 1845.867 692, 1846 691.908, 1846 688.894 L 1846 685.788 1848.752 688.735 C 1856.213 696.722, 1870.104 694.904, 1876.728 685.075 C 1880.073 680.112, 1881.276 674.442, 1880.776 666 C 1880.068 654.056, 1875.557 647.304, 1866.691 644.917 C 1860.425 643.229, 1854.487 644.565, 1849.922 648.689 L 1846 652.233 1846 638.116 L 1846 624 1841.500 624 L 1837 624 1837 658 M 1480 660 L 1480 692 1485 692 L 1490 692 1490 681.500 L 1490 671 1496.364 671 C 1515.702 671, 1526 663.444, 1526 649.256 C 1526 642.688, 1524.301 638.479, 1519.932 634.225 C 1514.994 629.416, 1508.940 628, 1493.318 628 L 1480 628 1480 660 M 1490 648.864 L 1490 662 1498.532 662 C 1509.233 662, 1513.527 660.376, 1515.536 655.568 C 1518.423 648.658, 1516.395 640.442, 1511.202 638.013 C 1509.716 637.318, 1504.338 636.520, 1499.250 636.239 L 1490 635.727 1490 648.864 M 1543.764 644.934 C 1537.894 646.834, 1534.096 650.105, 1531.429 655.555 C 1528.994 660.533, 1528.797 661.812, 1529.171 670.254 C 1529.501 677.723, 1530.050 680.336, 1532.029 683.848 C 1540.476 698.842, 1565.693 696.458, 1571.457 680.121 C 1573.230 675.096, 1573.475 664.250, 1571.940 658.723 C 1570.723 654.341, 1565.966 648.551, 1561.823 646.409 C 1558.322 644.598, 1547.524 643.716, 1543.764 644.934 M 1661.655 645.459 C 1652.884 648.586, 1648.729 655.994, 1648.649 668.648 C 1648.604 675.813, 1648.968 677.556, 1651.571 682.647 C 1653.730 686.868, 1655.635 689.075, 1658.523 690.701 C 1666.944 695.442, 1677.786 694.525, 1684.679 688.489 L 1688.500 685.143 1685.777 682.372 L 1683.055 679.600 1680.777 681.675 C 1679.525 682.816, 1677.517 684.256, 1676.316 684.875 C 1673.109 686.527, 1665.797 686.247, 1663.117 684.369 C 1660.470 682.515, 1658 677.284, 1658 673.532 L 1658 671 1674 671 L 1690 671 1689.994 666.250 C 1689.986 659.017, 1688.156 653.921, 1684.118 649.882 C 1678.526 644.291, 1669.768 642.566, 1661.655 645.459 M 1715.500 645.502 C 1713.300 646.280, 1710.263 648.292, 1708.750 649.974 L 1706 653.032 1706 649.516 C 1706 646.016, 1705.980 646, 1701.500 646 L 1697 646 1697 669 L 1697 692 1701.408 692 L 1705.817 692 1706.175 677.250 C 1706.460 665.488, 1706.894 661.833, 1708.315 659.206 C 1710.526 655.118, 1715.463 652.009, 1719.750 652.004 C 1722.874 652, 1723 651.845, 1723 648 C 1723 643.444, 1722.135 643.156, 1715.500 645.502 M 1740.037 645.174 C 1730.857 647.808, 1726.022 655.679, 1726.015 668 C 1726.010 678.280, 1727.445 682.708, 1732.382 687.645 C 1740.714 695.977, 1755.127 695.941, 1762.950 687.568 L 1765.400 684.945 1762.766 682.311 L 1760.132 679.677 1756.531 682.839 C 1753.510 685.491, 1752.121 686, 1747.899 686 C 1745.132 686, 1741.960 685.514, 1740.849 684.919 C 1738.571 683.700, 1735.055 676.660, 1735.022 673.250 C 1735 671.010, 1735.072 671, 1750.893 671 C 1763.563 671, 1766.895 670.717, 1767.321 669.606 C 1768.166 667.405, 1766.526 657.814, 1764.717 654.369 C 1760.325 646.009, 1750.232 642.249, 1740.037 645.174 M 1578.916 656.698 C 1581.057 662.639, 1584.770 672.900, 1587.167 679.500 L 1591.524 691.500 1595.997 691.500 L 1600.469 691.500 1605.451 674.767 C 1608.192 665.564, 1610.711 658.364, 1611.050 658.767 C 1611.388 659.170, 1613.836 666.813, 1616.489 675.750 L 1621.312 692 1625.549 692 C 1628.655 692, 1629.970 691.533, 1630.475 690.250 C 1633.246 683.210, 1646 647.580, 1646 646.879 C 1646 646.396, 1643.829 646, 1641.175 646 L 1636.351 646 1630.964 663.115 L 1625.577 680.230 1624.344 676.365 C 1623.665 674.239, 1621.231 666.514, 1618.933 659.198 L 1614.756 645.897 1610.681 646.198 L 1606.607 646.500 1601.566 662.712 C 1598.793 671.629, 1596.221 678.604, 1595.851 678.212 C 1595.480 677.821, 1592.970 670.525, 1590.273 662 L 1585.368 646.500 1580.195 646.198 L 1575.022 645.896 1578.916 656.698 M 1881.452 647.750 C 1893.114 682.554, 1896.635 691.514, 1898.769 691.820 C 1901.481 692.208, 1901.519 693.259, 1899.019 698.767 C 1896.802 703.651, 1894.113 705.040, 1889.072 703.904 C 1884.941 702.972, 1885.185 702.826, 1884.412 706.691 C 1883.861 709.443, 1884.115 709.845, 1887.051 710.868 C 1894.989 713.635, 1902.293 711.117, 1905.416 704.536 C 1906.828 701.561, 1926 647.302, 1926 646.282 C 1926 646.127, 1923.840 646, 1921.201 646 L 1916.401 646 1910.026 665.500 C 1906.519 676.225, 1903.564 685, 1903.460 685 C 1903.356 685, 1900.426 676.225, 1896.949 665.500 L 1890.627 646 1885.746 646 C 1881.541 646, 1880.946 646.242, 1881.452 647.750 M 1543.117 653.631 C 1539.737 655.998, 1538 661.028, 1538 668.448 C 1538 676.008, 1540.154 682.216, 1543.550 684.441 C 1546.547 686.405, 1554.216 686.457, 1557.926 684.538 C 1561.631 682.622, 1564 676.562, 1564 669 C 1564 661.438, 1561.631 655.378, 1557.926 653.462 C 1554.118 651.493, 1546.038 651.585, 1543.117 653.631 M 1662.707 654.016 C 1660.313 655.899, 1657.227 662.561, 1658.268 663.601 C 1658.525 663.858, 1663.703 663.940, 1669.776 663.784 L 1680.818 663.500 1679.446 659.500 C 1678.692 657.300, 1677.108 654.712, 1675.927 653.750 C 1672.929 651.308, 1665.971 651.448, 1662.707 654.016 M 1740.205 653.811 C 1738.943 654.782, 1737.296 657.359, 1736.546 659.538 L 1735.182 663.500 1746.224 663.784 C 1752.297 663.940, 1757.475 663.858, 1757.732 663.601 C 1758.773 662.561, 1755.687 655.899, 1753.293 654.016 C 1750.056 651.470, 1743.383 651.365, 1740.205 653.811 M 1785.106 654.564 C 1778.309 660.284, 1778.259 676.412, 1785.017 683.171 C 1788.671 686.825, 1795.299 687.126, 1799.491 683.829 C 1808.132 677.032, 1807.907 658.921, 1799.117 653.728 C 1794.717 651.129, 1788.767 651.484, 1785.106 654.564 M 1851.707 654.952 C 1844.287 661.467, 1844.185 675.385, 1851.503 682.703 C 1854.228 685.428, 1855.559 686, 1859.177 686 C 1864.621 686, 1867.671 683.936, 1870.086 678.617 C 1872.325 673.688, 1872.588 664.343, 1870.621 659.636 C 1867.301 651.690, 1858.036 649.395, 1851.707 654.952 M 675 661.500 L 675 664 1040.500 664 L 1406 664 1406 661.500 L 1406 659 1040.500 659 L 675 659 675 661.500" stroke="none" fill="#808080" fill-rule="evenodd"/><path d="M 2341.500 120.591 C 2339.850 120.823, 2334.900 121.500, 2330.500 122.094 C 2300.897 126.095, 2281.260 140.595, 2272.596 164.850 C 2267.646 178.708, 2266.885 185.836, 2266.303 223.750 L 2265.762 259 2250.881 259 L 2236 259 2236 285.500 L 2236 312 2251 312 L 2266 312 2266 401.500 L 2266 491 2300 491 L 2334 491 2334 401.500 L 2334 312 2355.500 312 L 2377 312 2377 285.500 L 2377 259 2355.382 259 L 2333.764 259 2334.282 229.750 C 2334.848 197.752, 2335.594 192.426, 2340.660 184.233 C 2342.847 180.695, 2345.027 178.784, 2349.463 176.515 C 2354.937 173.716, 2356.114 173.502, 2365.929 173.528 C 2375.119 173.552, 2377.360 173.911, 2383.078 176.278 C 2386.697 177.775, 2389.959 179, 2390.328 179 C 2390.698 179, 2391 166.859, 2391 152.019 L 2391 125.038 2388.750 124.496 C 2377.097 121.691, 2370.519 120.827, 2358.500 120.524 C 2350.800 120.329, 2343.150 120.360, 2341.500 120.591 M 2168.324 146.385 C 2162.254 148.362, 2157.983 151.267, 2152.274 157.304 C 2145.994 163.944, 2143.444 168.857, 2141.884 177.326 C 2138.682 194.706, 2148.191 212.432, 2165 220.413 C 2170.846 223.189, 2172.456 223.500, 2181 223.500 C 2189.609 223.500, 2191.132 223.201, 2197.241 220.307 C 2205.965 216.174, 2213.174 208.965, 2217.307 200.241 C 2220.202 194.129, 2220.500 192.612, 2220.500 183.979 C 2220.500 175.287, 2220.221 173.891, 2217.298 167.954 C 2213.365 159.965, 2205.378 151.813, 2198 148.259 C 2193.384 146.035, 2190.893 145.563, 2182.500 145.318 C 2176.024 145.128, 2171.028 145.505, 2168.324 146.385 M 451.355 209.039 C 441.132 211.063, 430.171 219.848, 425.251 229.962 C 422.903 234.788, 422.556 236.721, 422.556 245 C 422.556 253.310, 422.898 255.203, 425.288 260.117 C 433.589 277.188, 452.098 285.551, 469.627 280.153 C 488.418 274.365, 499.449 255.011, 494.644 236.256 C 492.715 228.726, 489.754 223.855, 483.740 218.321 C 474.484 209.803, 463.460 206.644, 451.355 209.039 M 2015.250 257.996 C 1991.677 261.326, 1970.986 272.438, 1953.688 291.057 L 1946.260 299.053 1945.784 294.101 C 1944.685 282.664, 1935.278 270.393, 1923.241 264.696 C 1916.602 261.553, 1916.239 261.500, 1899.250 261.153 L 1882 260.802 1882 375.901 L 1882 491 1915 491 L 1948 491 1948 429.724 C 1948 366.578, 1948.477 356.747, 1952.047 346.354 C 1959.382 324.998, 1979.167 311.553, 2003 311.729 C 2015.408 311.820, 2023.936 314.431, 2030.395 320.117 C 2036.053 325.096, 2038.330 329.338, 2041.198 340.231 C 2043.306 348.240, 2043.392 350.729, 2043.937 419.500 L 2044.500 490.500 2077.500 490.500 L 2110.500 490.500 2110.792 417.500 C 2111.089 343.428, 2110.403 320.899, 2107.505 309.500 C 2102.085 288.178, 2085.643 270.012, 2065.336 262.910 C 2052.298 258.351, 2028.954 256.060, 2015.250 257.996 M 2149 375 L 2149 491 2183 491 L 2217 491 2217 375 L 2217 259 2183 259 L 2149 259 2149 375 M 2388.302 260.250 C 2388.586 260.938, 2409.542 308.938, 2434.870 366.919 L 2480.921 472.338 2455.961 533.577 C 2442.232 567.258, 2431 595.082, 2431 595.408 C 2431 595.734, 2447.827 596, 2468.393 596 C 2497.369 596, 2505.901 595.719, 2506.296 594.750 C 2506.577 594.063, 2537.450 518.640, 2574.903 427.145 C 2612.356 335.650, 2643 260.383, 2643 259.884 C 2643 259.352, 2626.988 259.085, 2604.311 259.238 L 2565.622 259.500 2544.963 320.344 C 2533.600 353.808, 2522.841 387.108, 2521.053 394.344 C 2519.265 401.580, 2517.565 408.175, 2517.276 409 C 2516.986 409.825, 2515.931 405.100, 2514.931 398.500 C 2513.931 391.900, 2512.226 383.187, 2511.141 379.137 C 2510.057 375.088, 2499.569 346.403, 2487.835 315.393 L 2466.500 259.011 2427.143 259.006 C 2396.047 259.001, 2387.894 259.262, 2388.302 260.250 M 356 282.087 C 354.075 283.230, 328.197 308.430, 298.494 338.085 L 244.489 392.005 220.994 368.433 C 208.072 355.469, 195.830 343.993, 193.790 342.931 C 189.419 340.656, 182.273 340.419, 177.718 342.398 C 173.618 344.180, 139.445 378.566, 138.048 382.315 C 136.661 386.041, 136.790 393.840, 138.295 397.151 C 138.958 398.610, 160.425 420.979, 186 446.861 C 224.077 485.395, 233.387 494.309, 237.397 496.071 C 242.891 498.486, 247.419 498.319, 253.402 495.479 C 257.141 493.705, 409.316 341.039, 411.689 336.683 C 413.691 333.006, 414.236 327.252, 412.960 323.271 C 412.071 320.498, 406.953 314.649, 393.625 301.173 C 383.656 291.093, 374.285 282.205, 372.800 281.423 C 368.722 279.274, 360.165 279.612, 356 282.087 M 2013 593.777 C 2013 598.721, 2015.336 602, 2018.857 602 C 2022.769 602, 2024 600.276, 2024 594.800 C 2024 591.200, 2023.625 590, 2022.500 590 C 2021.389 590, 2021 591.167, 2021 594.500 C 2021 598.249, 2020.684 599, 2019.107 599 C 2016.951 599, 2016 597.137, 2016 592.918 C 2016 590.991, 2015.491 590, 2014.500 590 C 2013.431 590, 2013 591.086, 2013 593.777 M 2033.667 590.667 C 2032.045 592.288, 2033.099 596.088, 2035.469 597.168 C 2038.320 598.467, 2037.966 600.065, 2034.999 599.289 C 2033.609 598.926, 2033 599.259, 2033 600.383 C 2033 601.558, 2033.938 602, 2036.433 602 C 2041.190 602, 2042.366 598.572, 2038.692 595.411 C 2036.090 593.174, 2036.039 591.694, 2038.598 592.676 C 2039.442 593, 2040 592.575, 2040 591.607 C 2040 590.509, 2039.102 590, 2037.167 590 C 2035.608 590, 2034.033 590.300, 2033.667 590.667 M 2050 596 C 2050 600.667, 2050.333 602, 2051.500 602 C 2052.667 602, 2053 600.667, 2053 596 C 2053 591.333, 2052.667 590, 2051.500 590 C 2050.333 590, 2050 591.333, 2050 596 M 2062 595.813 C 2062 600.646, 2062.328 602, 2063.500 602 C 2064.462 602, 2065.011 601.014, 2065.032 599.250 L 2065.063 596.500 2067.484 599.250 C 2068.815 600.763, 2070.151 602, 2070.452 602 C 2070.753 602, 2071 599.300, 2071 596 C 2071 591.333, 2070.667 590, 2069.500 590 C 2068.539 590, 2068 590.965, 2068 592.687 L 2068 595.374 2065 592.500 L 2062 589.626 2062 595.813 M 2080 596 L 2080 602 2084.500 602 C 2087.833 602, 2089 601.611, 2089 600.500 C 2089 599.500, 2088 599, 2086 599 C 2084.350 599, 2083 598.550, 2083 598 C 2083 597.450, 2084.387 597, 2086.083 597 C 2089.992 597, 2089.515 594.755, 2085.418 593.868 L 2082.500 593.237 2085.750 593.118 C 2087.920 593.039, 2089 592.501, 2089 591.500 C 2089 590.389, 2087.833 590, 2084.500 590 L 2080 590 2080 596 M 2097.439 592.192 C 2096.903 593.881, 2097.404 594.912, 2099.622 596.687 C 2102.441 598.943, 2102.269 599.410, 2098.750 599.052 C 2097.754 598.951, 2097 599.548, 2097 600.437 C 2097 602.886, 2103.640 602.542, 2104.988 600.023 C 2105.828 598.453, 2105.630 597.630, 2104.023 596.023 C 2102.910 594.910, 2101.523 594, 2100.941 594 C 2100.359 594, 2100.134 593.592, 2100.442 593.094 C 2100.750 592.596, 2101.902 592.423, 2103.001 592.711 C 2104.391 593.074, 2105 592.741, 2105 591.617 C 2105 590.442, 2104.062 590, 2101.567 590 C 2098.913 590, 2097.977 590.497, 2097.439 592.192 M 2114.035 591.934 C 2112.573 594.667, 2112.633 594.806, 2116.250 597.011 L 2119.500 598.993 2116.750 598.996 C 2114.924 598.999, 2114 599.525, 2114 600.563 C 2114 602.770, 2119.959 602.061, 2121.399 599.683 C 2122.306 598.186, 2122.016 597.474, 2119.750 595.645 C 2116.518 593.036, 2116.177 591.604, 2119 592.500 C 2120.419 592.950, 2121 592.680, 2121 591.567 C 2121 589.198, 2115.340 589.496, 2114.035 591.934 M 2161.557 592.223 C 2158.389 596.745, 2160.993 602, 2166.402 602 C 2170.262 602, 2173 599.438, 2173 595.826 C 2173 590.349, 2164.700 587.735, 2161.557 592.223 M 2182.557 592.223 C 2179.389 596.745, 2181.993 602, 2187.402 602 C 2191.262 602, 2194 599.438, 2194 595.826 C 2194 590.349, 2185.700 587.735, 2182.557 592.223 M 2202 596 L 2202 602 2206.583 602 C 2209.803 602, 2211.044 601.628, 2210.755 600.750 C 2210.529 600.063, 2209.366 599.356, 2208.172 599.180 C 2206.318 598.908, 2206 598.213, 2206 594.430 C 2206 590.667, 2205.699 590, 2204 590 C 2202.222 590, 2202 590.667, 2202 596 M 2219.035 591.934 C 2217.573 594.667, 2217.633 594.806, 2221.250 597.011 L 2224.500 598.993 2221.250 598.996 C 2218.973 598.999, 2218 599.467, 2218 600.560 C 2218 602.819, 2224.937 602.094, 2226.399 599.683 C 2227.306 598.185, 2227.016 597.475, 2224.750 595.645 C 2221.518 593.036, 2221.177 591.604, 2224 592.500 C 2225.419 592.950, 2226 592.680, 2226 591.567 C 2226 589.198, 2220.340 589.496, 2219.035 591.934 M 2264.699 591.780 C 2260.702 596.197, 2264.059 602.407, 2270.125 601.820 C 2274.823 601.366, 2277.173 597.208, 2274.969 593.250 C 2273.007 589.727, 2267.297 588.910, 2264.699 591.780 M 2284 596 L 2284 602 2288.583 602 C 2293.633 602, 2294.501 599.755, 2289.673 599.184 C 2287.225 598.894, 2287 598.494, 2287 594.434 C 2287 591.159, 2286.608 590, 2285.500 590 C 2284.333 590, 2284 591.333, 2284 596 M 2300 593.777 C 2300 598.721, 2302.336 602, 2305.857 602 C 2309.769 602, 2311 600.276, 2311 594.800 C 2311 591.200, 2310.625 590, 2309.500 590 C 2308.389 590, 2308 591.167, 2308 594.500 C 2308 598.333, 2307.704 599, 2306 599 C 2304.296 599, 2304 598.333, 2304 594.500 C 2304 590.667, 2303.704 590, 2302 590 C 2300.353 590, 2300 590.667, 2300 593.777 M 2319.245 591.250 C 2319.471 591.938, 2320.634 592.644, 2321.828 592.820 C 2323.682 593.092, 2324 593.787, 2324 597.570 C 2324 600.841, 2324.392 602, 2325.500 602 C 2326.611 602, 2327 600.833, 2327 597.500 C 2327 593.667, 2327.296 593, 2329 593 C 2330.111 593, 2331 592.333, 2331 591.500 C 2331 590.331, 2329.657 590, 2324.917 590 C 2320.497 590, 2318.946 590.342, 2319.245 591.250 M 2339 596 C 2339 601.333, 2339.222 602, 2341 602 C 2342.778 602, 2343 601.333, 2343 596 C 2343 590.667, 2342.778 590, 2341 590 C 2339.222 590, 2339 590.667, 2339 596 M 2352.699 591.780 C 2348.702 596.197, 2352.059 602.407, 2358.125 601.820 C 2362.823 601.366, 2365.173 597.208, 2362.969 593.250 C 2361.007 589.727, 2355.297 588.910, 2352.699 591.780 M 2372 596 C 2372 600.667, 2372.333 602, 2373.500 602 C 2374.508 602, 2375 600.991, 2375 598.923 L 2375 595.847 2377.589 598.923 C 2379.013 600.615, 2380.588 602, 2381.089 602 C 2381.590 602, 2382 599.300, 2382 596 C 2382 591.333, 2381.667 590, 2380.500 590 C 2379.539 590, 2379 590.965, 2379 592.687 L 2379 595.374 2376.195 592.687 C 2374.653 591.209, 2373.078 590, 2372.695 590 C 2372.313 590, 2372 592.700, 2372 596 M 2164.569 593.573 C 2163.706 594.437, 2163 595.529, 2163 596 C 2163 596.471, 2163.706 597.563, 2164.569 598.427 C 2166.546 600.404, 2170 598.860, 2170 596 C 2170 593.140, 2166.546 591.596, 2164.569 593.573 M 2185.529 593.614 C 2184.688 594.455, 2184 595.529, 2184 596 C 2184 597.601, 2187.051 599.918, 2188.452 599.380 C 2190.194 598.711, 2191.109 596.447, 2190.391 594.577 C 2189.549 592.383, 2187.222 591.921, 2185.529 593.614 M 2267.529 593.614 C 2266.688 594.455, 2266 595.529, 2266 596 C 2266 597.601, 2269.051 599.918, 2270.452 599.380 C 2272.194 598.711, 2273.109 596.447, 2272.391 594.577 C 2271.549 592.383, 2269.222 591.921, 2267.529 593.614 M 2355.529 593.614 C 2354.688 594.455, 2354 595.529, 2354 596 C 2354 597.601, 2357.051 599.918, 2358.452 599.380 C 2360.194 598.711, 2361.109 596.447, 2360.391 594.577 C 2359.549 592.383, 2357.222 591.921, 2355.529 593.614 M 2101 677 L 2101 710 2119 710 L 2137 710 2137 677 L 2137 644 2119 644 L 2101 644 2101 677 M 2013.201 729.111 C 2013.387 732.978, 2013.974 735.498, 2014.750 735.754 C 2015.549 736.018, 2016.010 735.145, 2016.027 733.333 L 2016.053 730.500 2017.758 733.250 C 2018.696 734.763, 2020.034 736, 2020.732 736 C 2022.225 736, 2022.324 735.060, 2021.042 733.034 C 2020.460 732.113, 2020.493 731.111, 2021.129 730.344 C 2021.688 729.671, 2021.999 727.856, 2021.822 726.310 C 2021.531 723.774, 2021.081 723.470, 2017.201 723.190 L 2012.901 722.880 2013.201 729.111 M 2026 724 C 2026 724.550, 2027.125 725, 2028.500 725 C 2030.864 725, 2031 725.300, 2031 730.500 C 2031 733.525, 2031.450 736, 2032 736 C 2032.550 736, 2033 733.525, 2033 730.500 C 2033 725.300, 2033.136 725, 2035.500 725 C 2036.875 725, 2038 724.550, 2038 724 C 2038 723.444, 2035.333 723, 2032 723 C 2028.667 723, 2026 723.444, 2026 724 M 2042 729.583 C 2042 734.403, 2042.335 736.056, 2043.250 735.754 C 2044.024 735.498, 2044.613 732.991, 2044.798 729.171 C 2045.040 724.139, 2044.810 723, 2043.548 723 C 2042.307 723, 2042 724.308, 2042 729.583 M 2050 729.500 C 2050 733.167, 2050.436 736, 2051 736 C 2051.550 736, 2052 734.875, 2052 733.500 C 2052 731.389, 2052.467 731, 2055 731 C 2057 731, 2058 730.500, 2058 729.500 C 2058 728.500, 2057 728, 2055 728 C 2053 728, 2052 727.500, 2052 726.500 C 2052 725.500, 2053 725, 2055 725 C 2056.650 725, 2058 724.550, 2058 724 C 2058 723.450, 2056.200 723, 2054 723 L 2050 723 2050 729.500 M 2062.202 729.171 C 2062.387 732.991, 2062.976 735.498, 2063.750 735.754 C 2064.665 736.056, 2065 734.403, 2065 729.583 C 2065 724.308, 2064.693 723, 2063.452 723 C 2062.190 723, 2061.960 724.139, 2062.202 729.171 M 2071.862 724.018 C 2069.689 725.287, 2068.692 729.556, 2069.999 731.998 C 2071.464 734.735, 2074.751 736.279, 2077.593 735.566 C 2080.993 734.713, 2080.581 733.185, 2076.851 732.813 C 2070.828 732.214, 2070.387 725.449, 2076.377 725.539 C 2077.872 725.562, 2079 725.024, 2079 724.289 C 2079 722.782, 2074.285 722.602, 2071.862 724.018 M 2093.088 728.825 C 2090.960 733.042, 2090.372 735.112, 2091.163 735.601 C 2091.790 735.989, 2092.847 735.562, 2093.512 734.653 C 2095.087 732.499, 2097.946 732.544, 2099.558 734.748 C 2101.980 738.061, 2102.268 735.050, 2100.033 729.780 C 2098.801 726.876, 2097.424 724.107, 2096.973 723.627 C 2096.522 723.146, 2094.774 725.486, 2093.088 728.825 M 2106.202 729.250 L 2106.500 735.500 2110.250 735.810 C 2113.114 736.047, 2114 735.752, 2114 734.560 C 2114 733.563, 2113.099 733, 2111.500 733 C 2109.167 733, 2109 732.667, 2109 728 C 2109 724.154, 2108.643 723, 2107.452 723 C 2106.189 723, 2105.959 724.147, 2106.202 729.250 M 2134 729.500 C 2134 734.611, 2134.321 736, 2135.500 736 C 2136.561 736, 2137 734.926, 2137 732.333 L 2137 728.667 2140.458 732.583 L 2143.917 736.500 2143.958 729.750 C 2143.991 724.398, 2143.689 723, 2142.500 723 C 2141.477 723, 2140.996 724.033, 2140.989 726.250 L 2140.978 729.500 2138.416 726.250 C 2137.008 724.462, 2135.438 723, 2134.928 723 C 2134.417 723, 2134 725.925, 2134 729.500 M 2148 724 C 2148 724.550, 2149.125 725, 2150.500 725 C 2152.864 725, 2153 725.300, 2153 730.500 C 2153 733.525, 2153.450 736, 2154 736 C 2154.550 736, 2155 733.525, 2155 730.500 C 2155 725.300, 2155.136 725, 2157.500 725 C 2158.875 725, 2160 724.550, 2160 724 C 2160 723.444, 2157.333 723, 2154 723 C 2150.667 723, 2148 723.444, 2148 724 M 2164 729.557 L 2164 736.115 2168.172 735.807 C 2173.121 735.443, 2174.784 733, 2170.083 733 C 2168.009 733, 2167 732.509, 2167 731.500 C 2167 730.567, 2167.944 730, 2169.500 730 C 2170.875 730, 2172 729.550, 2172 729 C 2172 728.450, 2170.875 728, 2169.500 728 C 2167.944 728, 2167 727.433, 2167 726.500 C 2167 725.500, 2168 725, 2170 725 C 2171.650 725, 2173 724.550, 2173 724 C 2173 723.450, 2170.975 723, 2168.500 723 L 2164 723 2164 729.557 M 2177 729.500 L 2177 736 2181 736 C 2183.889 736, 2185 735.583, 2185 734.500 C 2185 733.567, 2184.056 733, 2182.500 733 C 2180.167 733, 2180 732.667, 2180 728 C 2180 724.222, 2179.633 723, 2178.500 723 C 2177.321 723, 2177 724.389, 2177 729.500 M 2189.202 729.250 L 2189.500 735.500 2193.250 735.810 C 2196.114 736.047, 2197 735.752, 2197 734.560 C 2197 733.563, 2196.099 733, 2194.500 733 C 2192.167 733, 2192 732.667, 2192 728 C 2192 724.154, 2191.643 723, 2190.452 723 C 2189.189 723, 2188.959 724.147, 2189.202 729.250 M 2210.655 724.829 C 2208.581 727.121, 2208.506 732.345, 2210.524 734.020 C 2211.361 734.715, 2213.836 735.411, 2216.024 735.567 L 2220 735.850 2220 731.925 C 2220 728.405, 2219.742 728, 2217.500 728 C 2216.125 728, 2215 728.450, 2215 729 C 2215 729.550, 2215.450 730, 2216 730 C 2216.550 730, 2217 730.675, 2217 731.500 C 2217 733.668, 2213.255 733.345, 2212.039 731.072 C 2210.117 727.482, 2213.421 724.073, 2217.359 725.584 C 2218.461 726.007, 2219 725.686, 2219 724.607 C 2219 722.297, 2212.797 722.462, 2210.655 724.829 M 2225 729.500 L 2225 736 2229 736 C 2231.889 736, 2233 735.583, 2233 734.500 C 2233 733.500, 2232 733, 2230 733 C 2228 733, 2227 732.500, 2227 731.500 C 2227 730.500, 2228 730, 2230 730 C 2231.650 730, 2233 729.550, 2233 729 C 2233 728.450, 2231.650 728, 2230 728 C 2228 728, 2227 727.500, 2227 726.500 C 2227 725.500, 2228 725, 2230 725 C 2231.650 725, 2233 724.550, 2233 724 C 2233 723.450, 2231.200 723, 2229 723 L 2225 723 2225 729.500 M 2238 729.304 C 2238 733.101, 2238.433 736, 2239 736 C 2239.550 736, 2240.019 734.313, 2240.042 732.250 L 2240.083 728.500 2243.387 732.238 C 2245.204 734.294, 2246.985 735.681, 2247.345 735.321 C 2247.705 734.961, 2248 732.042, 2248 728.833 C 2248 724.315, 2247.662 723, 2246.500 723 C 2245.480 723, 2245 724.022, 2245 726.196 L 2245 729.392 2241.500 726 L 2238 722.608 2238 729.304 M 2252 724 C 2252 724.550, 2252.900 725, 2254 725 C 2255.758 725, 2256 725.667, 2256 730.500 C 2256 734.722, 2256.348 736, 2257.500 736 C 2258.652 736, 2259 734.722, 2259 730.500 C 2259 725.300, 2259.136 725, 2261.500 725 C 2262.875 725, 2264 724.550, 2264 724 C 2264 723.444, 2261.333 723, 2258 723 C 2254.667 723, 2252 723.444, 2252 724 M 2288.446 725.442 C 2286.315 728.695, 2286.921 731.869, 2290.130 734.255 C 2294.377 737.414, 2300 734.468, 2300 729.084 C 2300 723.214, 2291.633 720.578, 2288.446 725.442 M 2305 729.560 L 2305 736.121 2308.673 735.810 C 2313.275 735.421, 2314.490 733, 2310.083 733 C 2307.050 733, 2307 732.919, 2307 728 C 2307 725.250, 2306.550 723, 2306 723 C 2305.435 723, 2305 725.853, 2305 729.560 M 2316.242 728.168 C 2316.753 733.489, 2318.638 736, 2322.120 736 C 2325.269 736, 2327 733.137, 2327 727.929 C 2327 721.619, 2325.208 721.473, 2324.805 727.750 C 2324.528 732.069, 2324.273 732.500, 2322 732.500 C 2319.727 732.500, 2319.472 732.069, 2319.195 727.750 C 2318.969 724.226, 2318.484 723, 2317.318 723 C 2316.027 723, 2315.834 723.925, 2316.242 728.168 M 2331 724 C 2331 724.550, 2332.125 725, 2333.500 725 C 2335.868 725, 2336 725.294, 2336 730.583 C 2336 737.927, 2338.369 737.578, 2338.802 730.171 C 2339.057 725.816, 2339.412 725, 2341.052 725 C 2342.124 725, 2343 724.550, 2343 724 C 2343 723.444, 2340.333 723, 2337 723 C 2333.667 723, 2331 723.444, 2331 724 M 2347.202 729.171 C 2347.387 732.991, 2347.976 735.498, 2348.750 735.754 C 2349.665 736.056, 2350 734.403, 2350 729.583 C 2350 724.308, 2349.693 723, 2348.452 723 C 2347.190 723, 2346.960 724.139, 2347.202 729.171 M 2357.400 723.765 C 2354.817 725.490, 2353.867 728.949, 2355.207 731.746 C 2358.247 738.088, 2367 736.457, 2367 729.548 C 2367 727.675, 2366.293 725.436, 2365.429 724.571 C 2363.796 722.939, 2359.312 722.489, 2357.400 723.765 M 2372 729.500 C 2372 733.167, 2372.436 736, 2373 736 C 2373.550 736, 2374 734.337, 2374 732.304 L 2374 728.608 2377.298 731.804 C 2379.111 733.562, 2380.911 735, 2381.298 735 C 2381.684 735, 2382 732.300, 2382 729 C 2382 724.333, 2381.667 723, 2380.500 723 C 2379.480 723, 2378.991 724.041, 2378.971 726.250 L 2378.941 729.500 2375.985 726.250 C 2374.359 724.462, 2372.797 723, 2372.514 723 C 2372.231 723, 2372 725.925, 2372 729.500 M 2291.040 726.452 C 2288.600 729.392, 2291.827 734.048, 2295.364 732.691 C 2298.430 731.514, 2296.786 725, 2293.422 725 C 2292.775 725, 2291.703 725.653, 2291.040 726.452 M 2358.200 726.200 C 2355.688 728.712, 2357.558 733, 2361.165 733 C 2362.135 733, 2363.395 732.130, 2363.965 731.066 C 2365.304 728.564, 2365.288 728.431, 2363.429 726.571 C 2361.550 724.692, 2359.830 724.570, 2358.200 726.200" stroke="none" fill="#06b3ab" fill-rule="evenodd"/><path d="M 218.081 69.250 C 217.602 70.487, 180.301 168.475, 135.188 287 C 90.076 405.525, 52.856 503.288, 52.476 504.250 C 51.824 505.903, 54.611 506, 102.643 505.997 L 153.500 505.995 166.250 473.707 C 173.263 455.948, 179 440.983, 179 440.450 C 179 439.917, 170.179 430.710, 159.398 419.990 C 148.618 409.271, 139.168 399.052, 138.398 397.282 C 136.607 393.159, 136.607 385.841, 138.398 381.718 C 140.180 377.618, 174.566 343.445, 178.315 342.048 C 182.457 340.506, 189.644 340.772, 193.300 342.603 C 195.060 343.485, 199.900 347.550, 204.055 351.636 L 211.611 359.066 241.493 283.476 C 257.928 241.902, 271.628 207.732, 271.938 207.544 C 272.247 207.356, 280.356 227.519, 289.959 252.351 C 299.561 277.183, 309.405 302.604, 311.834 308.841 L 316.250 320.182 334.875 301.709 C 345.119 291.549, 354.940 282.508, 356.700 281.618 C 360.662 279.615, 369.189 279.517, 372.800 281.433 C 377.476 283.913, 410.788 318.168, 412.463 322.218 C 414.283 326.620, 414.344 328.186, 412.907 333.500 C 411.999 336.855, 406.660 342.682, 379.807 369.626 L 347.789 401.752 367.518 452.626 C 378.369 480.607, 387.465 504.063, 387.731 504.750 C 388.109 505.728, 399.840 506, 441.724 506 L 495.233 506 494.654 503.786 C 494.336 502.569, 456.371 403.802, 410.288 284.305 L 326.500 67.037 272.725 67.018 L 218.950 67 218.081 69.250 M 826.211 147.739 C 825.665 149.258, 796.144 226.881, 760.609 320.235 C 725.074 413.590, 696 490.202, 696 490.485 C 696 490.768, 713.987 491, 735.971 491 L 775.942 491 787.794 454.750 L 799.647 418.500 866.233 418.243 L 932.820 417.986 935.578 425.243 C 937.096 429.234, 943.339 445.550, 949.453 461.500 L 960.569 490.500 1002.896 490.761 L 1045.222 491.022 1044.629 488.761 C 1044.303 487.517, 1014.413 409.775, 978.207 316 L 912.377 145.500 869.790 145.239 L 827.203 144.979 826.211 147.739 M 1475.844 146.349 C 1465.807 150.056, 1457.409 157.483, 1452.313 167.160 C 1449.702 172.117, 1449.500 173.325, 1449.500 184 C 1449.500 195.166, 1449.598 195.681, 1452.875 201.723 C 1459.676 214.263, 1471.756 222.594, 1484.710 223.678 C 1501.498 225.083, 1517.578 215.665, 1524.840 200.175 C 1527.191 195.159, 1527.500 193.280, 1527.500 184 C 1527.500 174.406, 1527.246 172.982, 1524.558 167.500 C 1520.804 159.843, 1513.157 152.196, 1505.500 148.442 C 1500.250 145.868, 1498.250 145.469, 1489.500 145.250 C 1482.990 145.087, 1478.224 145.471, 1475.844 146.349 M 1769 204 L 1769 259 1753 259 L 1737 259 1737 285.500 L 1737 312 1753 312 L 1769 312 1769 401.500 L 1769 491 1803 491 L 1837 491 1837 401.500 L 1837 312 1853 312 L 1869 312 1869 285.500 L 1869 259 1853 259 L 1837 259 1837 204 L 1837 149 1803 149 L 1769 149 1769 204 M 866.579 209.500 C 863.536 230.350, 858.409 248.363, 840.377 301.553 C 830.152 331.717, 821.560 356.982, 821.286 357.698 C 820.880 358.756, 829.615 359, 867.893 359 C 893.802 359, 915 358.863, 915 358.696 C 915 358.529, 905.966 332.320, 894.924 300.454 C 876.420 247.055, 874.552 241.026, 871.078 223.508 C 867.473 205.332, 867.276 204.719, 866.579 209.500 M 1135.230 251.105 C 1109.769 254.065, 1089.254 263.507, 1074.655 278.983 C 1066.675 287.442, 1062.805 293.917, 1059.452 304.422 C 1056.484 313.722, 1055.290 327.961, 1056.804 336 C 1062.033 363.756, 1082.536 379.733, 1138.811 399.903 C 1155.533 405.897, 1163.815 409.865, 1169.875 414.786 C 1180.753 423.620, 1180.483 437.925, 1169.305 445.028 C 1153.416 455.123, 1127.047 453.474, 1112.395 441.468 C 1108.392 438.187, 1102 427.611, 1102 424.267 C 1102 423.489, 1101.436 422.999, 1100.748 423.177 C 1099.589 423.476, 1049.924 448.861, 1049.157 449.546 C 1048.968 449.715, 1050.538 453.134, 1052.646 457.145 C 1064.521 479.744, 1091.497 495.046, 1126.303 498.928 C 1163.016 503.021, 1198.341 494.909, 1219.208 477.592 C 1235.454 464.110, 1243.100 447.296, 1243.125 425 C 1243.149 402.487, 1236.089 387.737, 1219.111 374.831 C 1209.636 367.629, 1189.177 358.019, 1169.500 351.527 C 1142.325 342.562, 1125.871 333.453, 1121.466 324.935 C 1119.584 321.295, 1119.588 314.698, 1121.474 311.051 C 1123.790 306.572, 1130.537 301.427, 1136.782 299.377 C 1145.279 296.588, 1161.512 296.840, 1169.247 299.881 C 1176.825 302.862, 1184.872 310.275, 1187.994 317.152 C 1189.329 320.094, 1190.571 322.708, 1190.755 322.962 C 1190.939 323.215, 1202.283 317.841, 1215.964 311.018 L 1240.838 298.613 1238.526 294.056 C 1226.706 270.763, 1201.146 254.939, 1169.026 251.031 C 1159.312 249.849, 1145.775 249.879, 1135.230 251.105 M 1329.230 251.105 C 1303.380 254.111, 1283.051 263.591, 1268.081 279.620 C 1256.974 291.513, 1251.622 304.015, 1250.365 321.002 C 1247.705 356.937, 1268.099 376.675, 1331.344 399.379 C 1356.940 408.567, 1365.835 413.897, 1370.028 422.558 C 1376.587 436.106, 1365.788 448.480, 1345.167 451.046 C 1324.179 453.658, 1306.245 446.183, 1299.076 431.835 C 1297.384 428.450, 1296 425.077, 1296 424.340 C 1296 423.603, 1295.632 423, 1295.181 423 C 1294.502 423, 1244.168 448.677, 1243.186 449.524 C 1242.044 450.509, 1251.028 465.026, 1256.206 470.561 C 1273.067 488.585, 1298.132 498.213, 1332 499.676 C 1386.972 502.049, 1427.088 479.453, 1435.567 441.342 C 1437.948 430.640, 1437.183 411.929, 1433.982 402.590 C 1430.923 393.666, 1423.210 382.976, 1415 376.280 C 1405.621 368.632, 1385.730 359.113, 1363.101 351.444 C 1334.367 341.707, 1319.994 333.690, 1315.423 324.852 C 1313.580 321.286, 1313.604 314.667, 1315.474 311.051 C 1317.686 306.773, 1324.638 301.291, 1330.391 299.288 C 1338.135 296.592, 1355.594 296.906, 1363.202 299.879 C 1370.691 302.806, 1377.999 309.490, 1381.610 316.717 C 1383.200 319.898, 1384.633 322.708, 1384.795 322.962 C 1384.957 323.215, 1396.296 317.834, 1409.993 311.004 L 1434.896 298.584 1431.847 292.865 C 1415.351 261.914, 1375.552 245.718, 1329.230 251.105 M 1621 251.038 C 1586.054 255.330, 1559.057 272.244, 1547.763 296.923 C 1543.813 305.553, 1542.036 314.566, 1542.029 326 C 1542.010 359.992, 1562.836 378.263, 1627.500 400.986 C 1653.153 410, 1663.432 418.353, 1663.291 430.071 C 1663.228 435.312, 1661.403 439.337, 1657.339 443.196 C 1648.379 451.705, 1624.813 454.214, 1609.680 448.270 C 1599.445 444.249, 1591.005 435.785, 1588.723 427.254 C 1588.097 424.914, 1587.211 423, 1586.753 423 C 1585.123 423, 1535 449.329, 1535 450.185 C 1535 452.294, 1541.224 463.091, 1545.380 468.193 C 1551.552 475.770, 1560.533 482.360, 1572.500 488.093 C 1584.602 493.890, 1593.848 496.544, 1608.801 498.512 C 1642.404 502.936, 1676.455 496.948, 1697.415 482.928 C 1705.618 477.442, 1716.204 466.741, 1720.238 459.857 C 1721.713 457.340, 1724.157 451.730, 1725.669 447.390 C 1728.150 440.271, 1728.423 438.132, 1728.459 425.500 C 1728.507 409.093, 1726.619 401.328, 1720.184 391.458 C 1709.157 374.548, 1692.377 364.264, 1654.978 351.492 C 1632.698 343.884, 1625.462 340.746, 1617.094 335.064 C 1607.493 328.544, 1603.907 321.774, 1605.978 314.082 C 1608.412 305.041, 1619.079 298.560, 1633.533 297.338 C 1651.715 295.801, 1666.011 302.709, 1673.126 316.468 C 1674.982 320.057, 1676.841 322.994, 1677.258 322.996 C 1678.530 323.003, 1726 299.035, 1726 298.386 C 1726 298.053, 1724.556 295.017, 1722.791 291.640 C 1718.832 284.064, 1703.945 268.935, 1695.676 264.083 C 1688.048 259.608, 1674.495 254.579, 1664.500 252.516 C 1654.962 250.546, 1631.491 249.749, 1621 251.038 M 1453 375 L 1453 491 1487 491 L 1521 491 1521 375 L 1521 259 1487 259 L 1453 259 1453 375 M 1996 596.057 L 1996 602.115 2000.250 601.807 C 2004.481 601.501, 2004.500 601.482, 2004.548 597.500 C 2004.618 591.623, 2003.518 590, 1999.465 590 L 1996 590 1996 596.057 M 2141 591.500 C 2141 592.433, 2141.944 593, 2143.500 593 C 2145.796 593, 2146 593.367, 2146 597.500 C 2146 600.833, 2146.389 602, 2147.500 602 C 2148.611 602, 2149 600.833, 2149 597.500 C 2149 593.667, 2149.296 593, 2151 593 C 2152.111 593, 2153 592.333, 2153 591.500 C 2153 590.333, 2151.667 590, 2147 590 C 2142.333 590, 2141 590.333, 2141 591.500 M 2247.667 590.667 C 2246.045 592.288, 2247.099 596.088, 2249.469 597.168 C 2252.320 598.467, 2251.966 600.065, 2248.999 599.289 C 2247.609 598.926, 2247 599.259, 2247 600.383 C 2247 601.558, 2247.938 602, 2250.433 602 C 2255.190 602, 2256.366 598.572, 2252.692 595.411 C 2250.090 593.174, 2250.039 591.694, 2252.598 592.676 C 2253.442 593, 2254 592.575, 2254 591.607 C 2254 590.509, 2253.102 590, 2251.167 590 C 2249.608 590, 2248.033 590.300, 2247.667 590.667 M 1984.544 609.929 C 1984.216 610.460, 1986.429 612.769, 1989.463 615.060 L 1994.980 619.225 1995.240 664.363 L 1995.500 709.500 2045.250 709.759 L 2095 710.019 2095 699.509 L 2095 689 2063.011 689 L 2031.023 689 2030.761 649.250 L 2030.500 609.500 2007.821 609.231 C 1994.004 609.068, 1984.908 609.340, 1984.544 609.929 M 2137.639 609.775 C 2137.348 610.246, 2139.776 612.626, 2143.034 615.065 L 2148.958 619.500 2148.979 664.750 L 2149 710 2198.750 709.994 C 2230.738 709.991, 2249.864 709.610, 2252.321 708.928 C 2257.202 707.572, 2263.792 701.644, 2266.134 696.500 C 2267.600 693.282, 2267.960 689.903, 2267.978 679.218 C 2268 666.038, 2267.070 661.199, 2263.746 657.194 C 2262.886 656.158, 2262.629 651.614, 2262.860 641.558 C 2263.124 630.117, 2262.869 626.622, 2261.540 623.441 C 2259.482 618.514, 2255.675 614.451, 2250.500 611.658 C 2246.563 609.534, 2245.646 609.495, 2192.334 609.210 C 2162.543 609.050, 2137.930 609.304, 2137.639 609.775 M 2285.395 610.108 C 2280.183 611.317, 2273.270 617.195, 2270.886 622.444 C 2268.140 628.491, 2268.254 643.828, 2271.090 649.685 C 2273.419 654.497, 2278.869 659.472, 2283.479 660.993 C 2285.147 661.544, 2299.266 663.540, 2314.853 665.430 C 2336.819 668.092, 2343.621 669.252, 2345.097 670.588 C 2346.612 671.959, 2347 673.695, 2347 679.098 C 2347 689.052, 2347.127 689, 2322.728 689 C 2305.895 689, 2303.021 688.786, 2303.700 687.581 C 2304.140 686.800, 2304.354 682.300, 2304.177 677.581 L 2303.853 669 2288.022 669 L 2272.192 669 2271.777 683.250 C 2271.264 700.857, 2272.255 703.148, 2282.500 708.044 C 2286.194 709.810, 2289.113 709.958, 2320.615 709.978 L 2354.730 710 2368.956 693.750 L 2383.182 677.500 2382.702 671.928 C 2382.103 664.973, 2379.179 659.120, 2374.279 655.068 C 2369.450 651.075, 2366.647 650.300, 2349 648.077 L 2334.500 646.251 2354.836 646.126 L 2375.172 646 2374.836 634.660 C 2374.521 624.016, 2374.320 623.061, 2371.570 619.097 C 2369.959 616.774, 2366.584 613.665, 2364.070 612.187 L 2359.500 609.500 2324.500 609.328 C 2305.178 609.233, 2287.661 609.583, 2285.395 610.108 M 2183.823 639.498 L 2184.147 648 2204.517 648 C 2224.433 648, 2224.921 647.950, 2226.443 645.777 C 2227.299 644.555, 2228 641.730, 2228 639.500 C 2228 637.270, 2227.299 634.445, 2226.443 633.223 C 2224.920 631.048, 2224.442 631, 2204.193 630.998 L 2183.500 630.995 2183.823 639.498 M 2305.596 632.547 C 2303.498 634.645, 2303.569 638.246, 2305.763 640.955 C 2307.218 642.753, 2309.477 643.387, 2318.723 644.594 C 2329.472 645.998, 2330.012 645.979, 2332.210 644.131 C 2333.470 643.071, 2335.841 641.080, 2337.480 639.706 C 2340.130 637.484, 2340.348 636.893, 2339.457 634.354 L 2338.454 631.500 2322.823 631.225 C 2309.595 630.992, 2306.947 631.196, 2305.596 632.547 M 2184.425 670.334 C 2184.144 671.067, 2184.046 675.455, 2184.207 680.084 L 2184.500 688.500 2205.895 688.770 C 2232.298 689.104, 2232 689.215, 2232 679.034 C 2232 668.858, 2232.363 669, 2206.246 669 C 2189.409 669, 2184.830 669.280, 2184.425 670.334" stroke="none" fill="#366eb5" fill-rule="evenodd"/></svg>